# xmcd CD database file
#
# Track frame offsets:
#	150
#	11529
#	23265
#	35946
#	49524
#	63102
#	76095
#	89490
#	100747
#	111894
#	123829
#	134833
#	145354
#	156648
#	166909
#	179307
#	192199
#	205090
#	216771
#	227076
#	239947
#	251307
#	261293
#	274622
#	287520
#
# Disc length: 3987 seconds
#
# Revision: 0
# Processed by: cddbd v1.5.2PL0 Copyright (c) Steve Scherf et al.
# Submitted via: CDex 1.51
#
DISCID=620f9119
DTITLE=Robert Johnson - Phonograph Blues
DYEAR=2007
DGENRE=Blues
TTITLE0=Crossroad Blues
TTITLE1=Hellhound on My Trail
TTITLE2=Come on in My Kitchen
TTITLE3=Sweet Home Chicago
TTITLE4=Terraplane Blues
TTITLE5=32-20 Blues
TTITLE6=They're Red Hot
TTITLE7=Walkin' Blues
TTITLE8=Stones In My Passway
TTITLE9=Last Fair Deal Gone Down
TTITLE10=Drunken Hearted Man
TTITLE11=Love In Vain
TTITLE12=Me and the Devil Blues
TTITLE13=Stop Breakin' Down Blues
TTITLE14=Travelling Riverside Blues
TTITLE15=When You Got A Good Friend
TTITLE16=Preachin' Blues (Up Jumped the Devil)
TTITLE17=If I Had Possesion Over Judgement Day
TTITLE18=Milkcow's Calf Blues
TTITLE19=Kind Hearted Woman Blues
TTITLE20=Dead Shrimp Blues
TTITLE21=Little Queen of Spades
TTITLE22=I Believe I'll Dust My Broom
TTITLE23=Ramblin' on My Mind
TTITLE24=Phonograph Blues
EXTD=YEAR: 2007
EXTT0=
EXTT1=
EXTT2=
EXTT3=
EXTT4=
EXTT5=
EXTT6=
EXTT7=
EXTT8=
EXTT9=
EXTT10=
EXTT11=
EXTT12=
EXTT13=
EXTT14=
EXTT15=
EXTT16=
EXTT17=
EXTT18=
EXTT19=
EXTT20=
EXTT21=
EXTT22=
EXTT23=
EXTT24=
PLAYORDER=
